<?xml version="1.0" encoding="UTF-8"?>
<svg width="222px" height="145px" viewBox="0 0 222 145" version="1.1" xmlns="http://www.w3.org/2000/svg" xmlns:xlink="http://www.w3.org/1999/xlink">
    <title>A4 Copy 2</title>
    <g id="A4-Copy-2" stroke="none" stroke-width="1" fill="none" fill-rule="evenodd">
        <g id="Group-4" transform="translate(0.000000, 0.000000)" fill-rule="nonzero">
            <g id="PocketAngler-logo2" transform="translate(68.039542, 0.000000)">
                <path d="M15.9715745,32.2443796 C21.8133216,32.2243817 27.1096867,29.9552502 31.8606698,25.4368536 C27.1403093,20.9506668 21.8592555,18.7175065 16.0175084,18.7372414 C10.1757613,18.7572393 4.87939614,21.0263709 0.128413088,25.5447674 C4.84877351,30.0309542 10.1298273,32.2641145 15.9715745,32.2443796 Z" id="Oval" fill="#FFCC2E" transform="translate(15.994541, 25.490811) rotate(45.000000) translate(-15.994541, -25.490811) "></path>
                <path d="M15.9715806,53.2727081 C21.8133278,53.2527102 27.1096928,50.9835758 31.8606759,46.4651734 C27.1403155,41.9789808 21.8592617,39.7458177 16.0175146,39.7655526 C10.1757674,39.7855505 4.87940232,42.0546849 0.12841925,46.5730873 C4.84877965,51.0592798 10.1298334,53.292443 15.9715806,53.2727081 Z" id="Oval" fill="#FFCC2E" transform="translate(15.994548, 46.519130) scale(1, -1) rotate(45.000000) translate(-15.994548, -46.519130) "></path>
                <rect id="Rectangle" fill="#1AADF0" x="22.7175837" y="33.9033457" width="21.7843704" height="61.0966543" rx="1.7424"></rect>
                <ellipse id="Oval" fill="#1AADF0" cx="56.839021" cy="33.8812732" rx="34.1214373" ry="33.8812732"></ellipse>
                <g id="Group-2" transform="translate(31.637347, 17.260688)">
                    <path d="M21.8222308,34.1158434 C30.1147551,34.118794 39.2807059,28.438124 49.3200835,17.0738327 C37.5825635,5.69362811 28.4166126,0.0023509103 21.8222308,0 C11.9306582,-0.00352145771 4.65119142,8.52896132 4.65119142,17.0579204 C4.65119142,25.5868796 9.38344438,34.1114078 21.8222308,34.1158434 Z" id="Combined-Shape" fill="#125480"></path>
                    <ellipse id="Oval" stroke="#979797" stroke-width="0.5" fill="#FFCC2E" cx="35.2323135" cy="16.4532554" rx="2.46816449" ry="2.45048452"></ellipse>
                    <path d="M7.96132107,32.8668791 C10.86597,32.8769398 13.4917645,31.7682092 15.8387045,29.5406876 C13.476278,27.2968544 10.8427402,26.1699075 7.93809131,26.1598468 C5.03344234,26.1497862 2.40764787,27.2585167 0.0607079104,29.4860384 C2.4231344,31.7298716 5.05667214,32.8568185 7.96132107,32.8668791 Z" id="Oval" fill="#FFCC2E" transform="translate(7.949706, 29.513363) rotate(-45.000000) translate(-7.949706, -29.513363) "></path>
                </g>
            </g>
            <g id="Group-2" transform="translate(0.000000, 120.000000)">
                <g id="Group" transform="translate(0.000000, 0.928165)" fill="#FFCC2E">
                    <path d="M1.98871581,4.8975184 C3.26359574,6.1623549 4.90906472,6.82003789 6.92512277,6.87056738 C6.8741921,4.87039165 6.21128683,3.23788552 4.93640697,1.97304897 C3.66152704,0.708212466 2.01605805,0.0505294772 0,0 C0.0509306664,2.00017571 0.713835935,3.63268184 1.98871581,4.8975184 Z" id="Oval"></path>
                    <path d="M1.98871581,8.84361635 C3.26359574,7.57877985 4.90906472,6.92109686 6.92512277,6.87056738 C6.8741921,8.8707431 6.21128683,10.5032492 4.93640697,11.7680858 C3.66152704,13.0329223 2.01605805,13.6906053 0,13.7411348 C0.0509306664,11.740959 0.713835935,10.1084529 1.98871581,8.84361635 Z" id="Oval"></path>
                </g>
                <g id="PocketAngler" transform="translate(6.990182, 0.000000)">
                    <path d="M1.52650645,19.6808511 C1.99070725,19.6808511 2.36563866,19.5257092 2.65130068,19.2154255 C2.93696271,18.9051418 3.07979372,18.5195035 3.07979372,18.0585106 L3.07979372,18.0585106 L3.0795478,13.0323219 L7.73965553,13.0319149 C8.59069032,13.0319149 9.39296791,12.8047121 10.1464883,12.3503066 L10.350785,12.2207447 C11.1631364,11.6799645 11.8192664,10.9574468 12.3191749,10.0531915 C12.8190834,9.14893617 13.0690377,8.14716312 13.0690377,7.04787234 C13.0690377,5.93085106 12.8190834,4.92021277 12.3191749,4.01595745 C11.8192664,3.11170213 11.1631364,2.39361702 10.350785,1.86170213 C9.53843361,1.32978723 8.66805712,1.06382979 7.73965553,1.06382979 L7.73965553,1.06382979 L1.63362971,1.06382979 C1.16942892,1.06382979 0.781107104,1.21897163 0.468664262,1.52925532 C0.156221421,1.83953901 0,2.2251773 0,2.68617021 L0,2.68617021 L0,18.0585106 C0,18.5195035 0.142831013,18.9051418 0.42849304,19.2154255 C0.714155067,19.5257092 1.08015954,19.6808511 1.52650645,19.6808511 Z M3.0795478,4.12311379 L7.73965553,4.12234043 C8.07887919,4.12234043 8.40917591,4.25975177 8.73054569,4.53457447 C9.05191547,4.80939716 9.31972362,5.16843972 9.53397014,5.61170213 C9.74821666,6.05496454 9.85533992,6.53368794 9.85533992,7.04787234 C9.85533992,7.54432624 9.74821666,8.01861702 9.53397014,8.47074468 C9.31972362,8.92287234 9.05191547,9.29078014 8.73054569,9.57446809 C8.40917591,9.85815603 8.07887919,10 7.73965553,10 L7.73965553,10 L3.0795478,10.0007164 L3.0795478,4.12311379 Z M26.3267626,19.9468085 C27.6836572,19.9468085 28.9111112,19.6365248 30.0091246,19.0159574 C31.107138,18.3953901 31.981978,17.5310284 32.6336445,16.4228723 C33.285311,15.3147163 33.6111442,14.0336879 33.6111442,12.5797872 C33.6111442,11.1258865 33.285311,9.84485816 32.6336445,8.73670213 C31.981978,7.6285461 31.107138,6.75975177 30.0091246,6.13031915 C28.9111112,5.50088652 27.6836572,5.18617021 26.3267626,5.18617021 C24.9698679,5.18617021 23.7424139,5.50088652 22.6444005,6.13031915 C21.5463871,6.75975177 20.6715471,7.6285461 20.0198806,8.73670213 C19.3682141,9.84485816 19.0423809,11.1258865 19.0423809,12.5797872 C19.0423809,14.0336879 19.3682141,15.3147163 20.0198806,16.4228723 C20.6715471,17.5310284 21.5463871,18.3953901 22.6444005,19.0159574 C23.7424139,19.6365248 24.9698679,19.9468085 26.3267626,19.9468085 Z M26.3267626,17.0212766 C25.5768997,17.0212766 24.8939889,16.8351064 24.2780302,16.462766 C23.6620715,16.0904255 23.1710899,15.5718085 22.8050854,14.9069149 C22.4390809,14.2420213 22.2560787,13.4663121 22.2560787,12.5797872 C22.2560787,11.6755319 22.4390809,10.8909574 22.8050854,10.2260638 C23.1710899,9.56117021 23.6620715,9.04255319 24.2780302,8.67021277 C24.8939889,8.29787234 25.5768997,8.11170213 26.3267626,8.11170213 C27.0766254,8.11170213 27.7595362,8.29787234 28.3754949,8.67021277 C28.9914536,9.04255319 29.4824353,9.56117021 29.8484397,10.2260638 C30.2144442,10.8909574 30.3974464,11.6755319 30.3974464,12.5797872 C30.3974464,13.4663121 30.2144442,14.2420213 29.8484397,14.9069149 C29.4824353,15.5718085 28.9914536,16.0904255 28.3754949,16.462766 C27.7595362,16.8351064 27.0766254,17.0212766 26.3267626,17.0212766 Z M46.7617458,19.9468085 C47.7080013,19.9468085 48.5873047,19.8359929 49.3996561,19.6143617 C50.2120075,19.3927305 50.8681374,19.1001773 51.368046,18.7367021 C51.8679545,18.373227 52.1179088,17.9698582 52.1179088,17.5265957 C52.1179088,17.1010638 51.9929317,16.7420213 51.7429774,16.4494681 C51.4930231,16.1569149 51.1359456,16.0106383 50.6717448,16.0106383 C50.2789595,16.0106383 49.9843705,16.0904255 49.7879779,16.25 C49.5915853,16.4095745 49.3684118,16.5602837 49.1184575,16.7021277 C48.904211,16.8085106 48.6364029,16.8882979 48.3150331,16.9414894 C47.9936633,16.9946809 47.6098049,17.0212766 47.163458,17.0212766 C46.3600336,17.0212766 45.650342,16.8262411 45.0343832,16.4361702 C44.4184245,16.0460993 43.9363698,15.518617 43.5882192,14.8537234 C43.2400686,14.1888298 43.0659933,13.4308511 43.0659933,12.5797872 C43.0659933,11.7109929 43.2356052,10.9441489 43.5748288,10.2792553 C43.9140525,9.6143617 44.4005706,9.08687943 45.0343832,8.69680851 C45.6681959,8.30673759 46.440376,8.11170213 47.3509237,8.11170213 C47.5294625,8.11170213 47.8017341,8.1427305 48.1677386,8.20478723 C48.5337431,8.26684397 48.8060147,8.35106383 48.9845534,8.45744681 C49.1809461,8.56382979 49.3505579,8.67907801 49.4933889,8.80319149 C49.6362199,8.92730496 49.8013683,9.02925532 49.988834,9.10904255 C50.1762997,9.18882979 50.4128636,9.2287234 50.6985256,9.2287234 C51.1091648,9.2287234 51.4216076,9.07358156 51.6358541,8.76329787 C51.8501007,8.45301418 51.9572239,8.12056738 51.9572239,7.76595745 C51.9572239,7.23404255 51.7474409,6.77748227 51.3278748,6.3962766 C50.9083087,6.01507092 50.3191307,5.71808511 49.560341,5.50531915 C48.8015512,5.29255319 47.9133208,5.18617021 46.8956499,5.18617021 C45.5209014,5.18617021 44.3023743,5.50088652 43.2400686,6.13031915 C42.177763,6.75975177 41.3475577,7.6285461 40.7494528,8.73670213 C40.151348,9.84485816 39.8522955,11.1258865 39.8522955,12.5797872 C39.8522955,13.962766 40.1334941,15.212766 40.6958912,16.3297872 C41.2582883,17.4468085 42.0572493,18.3289007 43.0927742,18.9760638 C44.128299,19.623227 45.3512895,19.9468085 46.7617458,19.9468085 Z M60.4211829,19.6808511 C60.8853837,19.6808511 61.269242,19.5257092 61.5727579,19.2154255 C61.8762738,18.9051418 62.0280318,18.5195035 62.0280318,18.0585106 L62.0280318,18.0585106 L62.0276711,15.260438 L63.3449888,14.056425 L68.1608384,19.1223404 C68.4465004,19.4375493 68.7885895,19.6126653 69.1871057,19.6476885 L69.3391943,19.6542553 C69.6962718,19.6542553 70.0578128,19.5079787 70.4238173,19.2154255 C70.7898217,18.9228723 70.972824,18.5460993 70.972824,18.0851064 C70.972824,17.641844 70.8032121,17.2429078 70.4639885,16.8882979 L70.4639885,16.8882979 L65.783707,11.8283089 L69.8212489,8.13829787 C70.2068927,7.80319149 70.4189967,7.44654255 70.4575611,7.06835106 L70.4639885,6.94148936 C70.4639885,6.62234043 70.3122305,6.29432624 70.0087146,5.95744681 C69.7051987,5.62056738 69.3481212,5.45212766 68.937482,5.45212766 C68.4911351,5.45212766 68.0983498,5.62056738 67.7591262,5.95744681 L67.7591262,5.95744681 L62.0276711,11.4505793 L62.0280318,1.62234043 C62.0280318,1.21256895 61.9081242,0.862336923 61.6683092,0.571644339 L61.5727579,0.465425532 C61.269242,0.155141844 60.8853837,1.13686838e-13 60.4211829,1.13686838e-13 C59.9569821,1.13686838e-13 59.5731237,0.155141844 59.2696078,0.465425532 C58.9660919,0.77570922 58.814334,1.16134752 58.814334,1.62234043 L58.814334,1.62234043 L58.814334,18.0585106 C58.814334,18.5195035 58.9660919,18.9051418 59.2696078,19.2154255 C59.5731237,19.5257092 59.9569821,19.6808511 60.4211829,19.6808511 Z M84.0430831,19.9468085 C84.9357769,19.9468085 85.80169,19.8005319 86.6408222,19.5079787 C87.4799544,19.2154255 88.1316209,18.8741135 88.5958217,18.4840426 C89.0957302,18.0939716 89.3456845,17.6595745 89.3456845,17.1808511 C89.3456845,16.8262411 89.2162439,16.5159574 88.9573627,16.25 C88.6984814,15.9840426 88.3726482,15.8510638 87.9798629,15.8510638 C87.6942009,15.8510638 87.390685,15.9308511 87.0693152,16.0904255 C86.8729226,16.1968085 86.6542126,16.3253546 86.4131852,16.4760638 C86.1721579,16.626773 85.8552516,16.7553191 85.4624663,16.8617021 C85.069681,16.9680851 84.5429916,17.0212766 83.8823982,17.0212766 C83.1682431,17.0212766 82.4942593,16.8484043 81.8604467,16.5026596 C81.2266341,16.1569149 80.7088716,15.6515957 80.3071594,14.9867021 C80.0880436,14.6240329 79.9286867,14.2178433 79.8290887,13.7681335 L79.8094109,13.6705547 L88.6493833,13.6702128 C89.0243147,13.6702128 89.358238,13.5684009 89.6511531,13.3647773 L89.7741775,13.2712766 C90.0955473,13.0053191 90.2651591,12.6595745 90.283013,12.2340426 C90.283013,11.2765957 90.1000108,10.3723404 89.7340063,9.5212766 C89.3680018,8.67021277 88.8725567,7.92109929 88.2476711,7.27393617 C87.6227854,6.62677305 86.9041668,6.11702128 86.0918154,5.74468085 C85.2794641,5.37234043 84.4180145,5.18617021 83.5074668,5.18617021 C82.3291109,5.18617021 81.2132436,5.48758865 80.1598649,6.09042553 C79.1064862,6.69326241 78.2539636,7.55762411 77.6022971,8.68351064 C76.9506306,9.80939716 76.6247973,11.1702128 76.6247973,12.7659574 C76.6247973,14.1312057 76.9238498,15.3546099 77.5219546,16.4361702 C78.1200595,17.5177305 78.9770456,18.373227 80.0929129,19.0026596 C81.2087802,19.6320922 82.5255036,19.9468085 84.0430831,19.9468085 Z M86.8550687,11.0109802 L79.8364622,11.0109802 L79.8827992,10.7995141 C79.8997714,10.7290299 79.9179559,10.6604063 79.9373527,10.5936433 L79.99918,10.3989362 C80.1955727,9.83156028 80.4633808,9.37943262 80.8026045,9.04255319 C81.1418281,8.70567376 81.5435404,8.46631206 82.0077412,8.32446809 C82.471942,8.18262411 82.9718505,8.11170213 83.5074668,8.11170213 C84.060937,8.11170213 84.5831629,8.23138298 85.0741445,8.47074468 C85.5651261,8.71010638 85.9757652,9.03368794 86.306062,9.44148936 C86.6363587,9.84929078 86.8193609,10.3102837 86.8550687,10.8244681 L86.8550687,10.8244681 L86.8550687,11.0109802 Z M102.523067,19.6808511 C103.147953,19.6808511 103.732667,19.5212766 104.27721,19.2021277 C104.821753,18.8829787 105.094025,18.4751773 105.094025,17.9787234 C105.094025,17.570922 104.991365,17.251773 104.786046,17.0212766 C104.580726,16.7907801 104.353089,16.6755319 104.103135,16.6755319 C103.871035,16.6755319 103.665715,16.7154255 103.487176,16.7952128 C103.308637,16.875 103.112245,16.9148936 102.897998,16.9148936 C102.701606,16.9148936 102.518603,16.8794326 102.348992,16.8085106 C102.17938,16.7375887 102.045476,16.6223404 101.947279,16.462766 C101.849083,16.3031915 101.799985,16.0992908 101.799985,15.8510638 L101.799985,15.8510638 L101.799682,8.64365772 L103.701423,8.64361702 C104.076354,8.64361702 104.396608,8.53841146 104.662184,8.32800033 L104.772655,8.23138298 C105.058317,7.95656028 105.201148,7.61524823 105.201148,7.20744681 C105.201148,6.78191489 105.058317,6.42730496 104.772655,6.14361702 C104.486993,5.85992908 104.129916,5.71808511 103.701423,5.71808511 L103.701423,5.71808511 L101.799682,5.71869566 L101.799985,4.01595745 C101.799985,3.60618597 101.683604,3.25595394 101.450842,2.96526136 L101.358101,2.85904255 C101.063512,2.54875887 100.684118,2.39361702 100.219917,2.39361702 C99.755716,2.39361702 99.3673942,2.54875887 99.0549513,2.85904255 C98.7425085,3.16932624 98.5862871,3.55496454 98.5862871,4.01595745 L98.5862871,4.01595745 L98.5854919,5.71869566 L97.3543696,5.71808511 C96.9794382,5.71808511 96.6591842,5.82329067 96.3936078,6.0337018 L96.283137,6.13031915 C95.9974749,6.40514184 95.8546439,6.7464539 95.8546439,7.15425532 C95.8546439,7.57978723 95.9974749,7.93439716 96.283137,8.21808511 C96.568799,8.50177305 96.9258765,8.64361702 97.3543696,8.64361702 L97.3543696,8.64361702 L98.5854919,8.64365772 L98.5862871,15.9840426 C98.5862871,16.7659574 98.6947494,17.3970745 98.911674,17.8773936 L98.9879993,18.0319149 C99.2558074,18.5283688 99.5905676,18.8962766 99.9922798,19.1356383 C100.393992,19.375 100.822485,19.5257092 101.277759,19.587766 C101.733033,19.6498227 102.148135,19.6808511 102.523067,19.6808511 Z" id="Pocket" fill="#1AADF0"></path>
                    <path d="M125.850378,19.8138298 C126.22531,19.8138298 126.568997,19.6719858 126.88144,19.3882979 C127.193882,19.1046099 127.350104,18.7234043 127.350104,18.2446809 C127.350104,18.0496454 127.305469,17.8368794 127.2162,17.606383 L127.2162,17.606383 L120.628119,2.0212766 C120.503142,1.68439716 120.302286,1.42287234 120.025551,1.23670213 C119.748816,1.05053191 119.449763,0.957446809 119.128394,0.957446809 C118.78917,0.921985816 118.472264,1.00177305 118.177675,1.19680851 C117.883086,1.39184397 117.664376,1.66666667 117.521545,2.0212766 L117.521545,2.0212766 L110.853122,17.9255319 C110.79956,18.1028369 110.772779,18.2712766 110.772779,18.4308511 C110.772779,18.820922 110.888829,19.1489362 111.12093,19.4148936 C111.35303,19.6808511 111.710108,19.8138298 112.192162,19.8138298 C112.495678,19.8138298 112.776877,19.7207447 113.035758,19.5345745 C113.294639,19.3484043 113.486569,19.0868794 113.611546,18.75 L113.611546,18.75 L115.00073,15.5054738 L122.98661,15.5054738 L124.377433,18.7234043 C124.496459,19.0041371 124.65578,19.2356186 124.855396,19.4178487 L124.980002,19.5212766 C125.238883,19.7163121 125.529008,19.8138298 125.850378,19.8138298 Z M121.664374,12.4470039 L116.31067,12.4470039 L118.974816,6.22342054 L121.664374,12.4470039 Z M144.330362,19.6808511 C144.794563,19.6808511 145.178421,19.5257092 145.481937,19.2154255 C145.785453,18.9051418 145.937211,18.5195035 145.937211,18.0585106 L145.937211,18.0585106 L145.937211,11.25 C145.937211,10.1329787 145.80777,9.1179078 145.548889,8.20478723 C145.290008,7.29166667 144.81688,6.56028369 144.129506,6.0106383 C143.442132,5.46099291 142.437851,5.18617021 141.116664,5.18617021 C140.509632,5.18617021 139.947235,5.27925532 139.429473,5.46542553 C138.91171,5.65159574 138.44751,5.89539007 138.03687,6.19680851 C137.626231,6.49822695 137.269154,6.82180851 136.965638,7.16755319 C136.864466,7.28280142 136.771229,7.39558708 136.685927,7.50591017 L136.670483,7.52593635 L136.671049,7.07446809 C136.671049,6.66469661 136.551141,6.31446458 136.311326,6.023772 L136.215775,5.91755319 C135.912259,5.6072695 135.528401,5.45212766 135.0642,5.45212766 C134.599999,5.45212766 134.216141,5.6072695 133.912625,5.91755319 C133.609109,6.22783688 133.457351,6.61347518 133.457351,7.07446809 L133.457351,7.07446809 L133.457351,18.0585106 C133.457351,18.5195035 133.609109,18.9051418 133.912625,19.2154255 C134.216141,19.5257092 134.599999,19.6808511 135.0642,19.6808511 C135.528401,19.6808511 135.912259,19.5257092 136.215775,19.2154255 C136.519291,18.9051418 136.671049,18.5195035 136.671049,18.0585106 L136.671049,18.0585106 L136.671049,11.25 C136.671049,10.6648936 136.800489,10.1374113 137.059371,9.66755319 C137.318252,9.19769504 137.693183,8.82092199 138.184165,8.53723404 C138.675146,8.2535461 139.277715,8.11170213 139.99187,8.11170213 C140.723879,8.11170213 141.286276,8.2535461 141.679061,8.53723404 C142.071846,8.82092199 142.344118,9.19769504 142.495876,9.66755319 C142.647634,10.1374113 142.723513,10.6648936 142.723513,11.25 L142.723513,11.25 L142.723513,18.0585106 C142.723513,18.5195035 142.875271,18.9051418 143.178787,19.2154255 C143.482303,19.5257092 143.866161,19.6808511 144.330362,19.6808511 Z M159.971579,25 C161.221351,25 162.39078,24.7916667 163.479866,24.375 C164.568952,23.9583333 165.448256,23.2845745 166.117776,22.3537234 C166.787297,21.4228723 167.122057,20.1861702 167.122057,18.643617 L167.122057,18.643617 L167.122057,6.80851064 C167.122057,6.32978723 166.970299,5.93971631 166.666783,5.63829787 C166.363267,5.33687943 165.979409,5.18617021 165.515208,5.18617021 C165.051007,5.18617021 164.667149,5.34131206 164.363633,5.65159574 C164.060117,5.96187943 163.908359,6.34751773 163.908359,6.80851064 L163.908359,6.80851064 L163.907892,7.10831721 L163.829383,7.02181937 C163.682362,6.8676726 163.517305,6.71433999 163.334211,6.56182154 L163.145106,6.40957447 C162.689832,6.05496454 162.149752,5.76241135 161.524867,5.53191489 C160.899981,5.30141844 160.212607,5.18617021 159.462744,5.18617021 C158.230826,5.18617021 157.114959,5.50088652 156.115142,6.13031915 C155.115325,6.75975177 154.320827,7.6285461 153.731649,8.73670213 C153.142471,9.84485816 152.847882,11.1258865 152.847882,12.5797872 C152.847882,14.0159574 153.142471,15.2881206 153.731649,16.3962766 C154.320827,17.5044326 155.124252,18.373227 156.141923,19.0026596 C157.159594,19.6320922 158.302242,19.9468085 159.569867,19.9468085 C160.212607,19.9468085 160.819638,19.8359929 161.390962,19.6143617 C161.962287,19.3927305 162.457732,19.1223404 162.877298,18.8031915 C163.296864,18.4840426 163.627161,18.160461 163.868188,17.8324468 L163.868188,17.8324468 L163.907892,17.7759217 L163.908359,19.0691489 C163.908359,19.9417427 163.63126,20.638524 163.077061,21.1594931 L162.94425,21.2765957 C162.30151,21.8085106 161.31062,22.0744681 159.971579,22.0744681 C159.596648,22.0744681 159.163691,22.0079787 158.67271,21.875 C158.181728,21.7420213 157.730918,21.5957447 157.320279,21.4361702 C156.909639,21.2765957 156.61505,21.1702128 156.436512,21.1170213 C156.043726,20.9751773 155.668795,20.9973404 155.311717,21.1835106 C154.95464,21.3696809 154.695759,21.7198582 154.535074,22.2340426 C154.410097,22.6241135 154.450268,22.9920213 154.655587,23.337766 C154.860907,23.6835106 155.231375,23.9716312 155.766991,24.2021277 C156.034799,24.3085106 156.427585,24.4237589 156.945347,24.5478723 C157.46311,24.6719858 158.007653,24.7783688 158.578977,24.8670213 C159.150301,24.9556738 159.614502,25 159.971579,25 Z M159.971579,17.0212766 C159.168155,17.0212766 158.462927,16.8262411 157.855895,16.4361702 C157.248863,16.0460993 156.775735,15.5141844 156.436512,14.8404255 C156.097288,14.1666667 155.927676,13.4131206 155.927676,12.5797872 C155.927676,11.7287234 156.097288,10.9663121 156.436512,10.2925532 C156.775735,9.61879433 157.248863,9.08687943 157.855895,8.69680851 C158.462927,8.30673759 159.168155,8.11170213 159.971579,8.11170213 C160.792858,8.11170213 161.507013,8.30673759 162.114044,8.69680851 C162.721076,9.08687943 163.194204,9.61879433 163.533428,10.2925532 C163.872651,10.9663121 164.042263,11.7287234 164.042263,12.5797872 C164.042263,13.4131206 163.872651,14.1666667 163.533428,14.8404255 C163.194204,15.5141844 162.721076,16.0460993 162.114044,16.4361702 C161.507013,16.8262411 160.792858,17.0212766 159.971579,17.0212766 Z M176.550125,19.6808511 C177.014326,19.6808511 177.402648,19.5257092 177.715091,19.2154255 C178.027533,18.9051418 178.183755,18.5195035 178.183755,18.0585106 L178.183755,18.0585106 L178.183755,1.62234043 C178.183755,1.16134752 178.03646,0.77570922 177.741871,0.465425532 C177.447282,0.155141844 177.067888,0 176.603687,0 C176.139486,0 175.751164,0.155141844 175.438721,0.465425532 C175.126278,0.77570922 174.970057,1.16134752 174.970057,1.62234043 L174.970057,1.62234043 L174.970057,18.0585106 C174.970057,18.5195035 175.121815,18.9051418 175.425331,19.2154255 C175.728847,19.5257092 176.103778,19.6808511 176.550125,19.6808511 Z M192.512712,19.9468085 C193.405406,19.9468085 194.271319,19.8005319 195.110451,19.5079787 C195.949584,19.2154255 196.60125,18.8741135 197.065451,18.4840426 C197.565359,18.0939716 197.815314,17.6595745 197.815314,17.1808511 C197.815314,16.8262411 197.685873,16.5159574 197.426992,16.25 C197.168111,15.9840426 196.842277,15.8510638 196.449492,15.8510638 C196.16383,15.8510638 195.860314,15.9308511 195.538944,16.0904255 C195.342552,16.1968085 195.123842,16.3253546 194.882814,16.4760638 C194.641787,16.626773 194.324881,16.7553191 193.932095,16.8617021 C193.53931,16.9680851 193.012621,17.0212766 192.352027,17.0212766 C191.637872,17.0212766 190.963888,16.8484043 190.330076,16.5026596 C189.696263,16.1569149 189.178501,15.6515957 188.776789,14.9867021 C188.557673,14.6240329 188.398316,14.2178433 188.298718,13.7681335 L188.278679,13.6705547 L197.119012,13.6702128 C197.493944,13.6702128 197.827867,13.5684009 198.120782,13.3647773 L198.243807,13.2712766 C198.565176,13.0053191 198.734788,12.6595745 198.752642,12.2340426 C198.752642,11.2765957 198.56964,10.3723404 198.203635,9.5212766 C197.837631,8.67021277 197.342186,7.92109929 196.7173,7.27393617 C196.092415,6.62677305 195.373796,6.11702128 194.561445,5.74468085 C193.749093,5.37234043 192.887644,5.18617021 191.977096,5.18617021 C190.79874,5.18617021 189.682873,5.48758865 188.629494,6.09042553 C187.576115,6.69326241 186.723593,7.55762411 186.071926,8.68351064 C185.42026,9.80939716 185.094427,11.1702128 185.094427,12.7659574 C185.094427,14.1312057 185.393479,15.3546099 185.991584,16.4361702 C186.589689,17.5177305 187.446675,18.373227 188.562542,19.0026596 C189.678409,19.6320922 190.995133,19.9468085 192.512712,19.9468085 Z M195.324321,11.0109802 L188.305731,11.0109802 L188.352428,10.7995141 C188.369401,10.7290299 188.387585,10.6604063 188.406982,10.5936433 L188.468809,10.3989362 C188.665202,9.83156028 188.93301,9.37943262 189.272234,9.04255319 C189.611457,8.70567376 190.01317,8.46631206 190.47737,8.32446809 C190.941571,8.18262411 191.44148,8.11170213 191.977096,8.11170213 C192.530566,8.11170213 193.052792,8.23138298 193.543774,8.47074468 C194.034755,8.71010638 194.445394,9.03368794 194.775691,9.44148936 C195.105988,9.84929078 195.28899,10.3102837 195.324698,10.8244681 L195.324698,10.8244681 L195.324321,11.0109802 Z M207.270163,19.6808511 C207.734364,19.6808511 208.118222,19.5257092 208.421738,19.2154255 C208.725254,18.9051418 208.877012,18.5195035 208.877012,18.0585106 L208.877012,18.0585106 L208.877012,11.7553191 C208.877012,11.1170213 208.961818,10.5629433 209.131429,10.0930851 C209.301041,9.62322695 209.524215,9.2287234 209.80095,8.90957447 C210.077685,8.59042553 210.381201,8.35549645 210.711497,8.20478723 C211.041794,8.05407801 211.367627,7.9787234 211.688997,7.9787234 C212.046075,7.9787234 212.362981,8.04078014 212.639716,8.16489362 C212.916451,8.28900709 213.224431,8.35106383 213.563654,8.35106383 C213.920732,8.35106383 214.251029,8.22251773 214.554544,7.96542553 C214.85806,7.70833333 215.009818,7.28723404 215.009818,6.70212766 C215.009818,6.29432624 214.826816,5.93971631 214.460812,5.63829787 C214.094807,5.33687943 213.643997,5.18617021 213.10838,5.18617021 C212.662034,5.18617021 212.215687,5.2393617 211.76934,5.34574468 C211.322993,5.45212766 210.903427,5.61613475 210.510641,5.83776596 C210.117856,6.05939716 209.765242,6.33421986 209.452799,6.66223404 C209.244504,6.88091017 209.061998,7.1212569 208.90528,7.38327423 L208.876217,7.43476024 L208.877012,7.07446809 C208.877012,6.66469661 208.757104,6.31446458 208.517289,6.023772 L208.421738,5.91755319 C208.118222,5.6072695 207.734364,5.45212766 207.270163,5.45212766 C206.805962,5.45212766 206.422104,5.6072695 206.118588,5.91755319 C205.815072,6.22783688 205.663314,6.61347518 205.663314,7.07446809 L205.663314,7.07446809 L205.663314,18.0585106 C205.663314,18.5195035 205.815072,18.9051418 206.118588,19.2154255 C206.422104,19.5257092 206.805962,19.6808511 207.270163,19.6808511 Z" id="Angler" fill="#125480"></path>
                </g>
            </g>
        </g>
    </g>
</svg>